HIERARCHY
ROOT run
{
OFFSET 0.0 0.0 0.0 
CHANNELS 6 Xposition Yposition Zposition Xrotation Yrotation Zrotation
JOINT Spine_01
{
OFFSET 0.113846 125.062401 -47.579815
CHANNELS 3 Xrotation Yrotation Zrotation
JOINT Spine_02
{
OFFSET -1.089942 -4.358421 28.542002
CHANNELS 3 Xrotation Yrotation Zrotation
JOINT Spine_03
{
OFFSET -0.377767 -1.393097 36.826138
CHANNELS 3 Xrotation Yrotation Zrotation
JOINT Spine_04
{
OFFSET 1.351514 3.546082 39.13813
CHANNELS 3 Xrotation Yrotation Zrotation
JOINT Neck_Base
{
OFFSET 2.360031 2.774048 29.430767
CHANNELS 3 Xrotation Yrotation Zrotation
JOINT LowerBack
{
OFFSET 0.0 0.0 0.0
CHANNELS 3 Zrotation Yrotation Xrotation
JOINT Spine
{
OFFSET -0.0030600000000000002 19.11591 -2.2905
CHANNELS 3 Zrotation Yrotation Xrotation
JOINT Spine1
{
OFFSET 0.50346 19.29411 -0.29862
CHANNELS 3 Zrotation Yrotation Xrotation
JOINT Neck
{
OFFSET 0.0 0.0 0.0
CHANNELS 3 Zrotation Yrotation Xrotation
JOINT Neck1
{
OFFSET -0.8851500000000001 14.64525 2.1789899999999998
CHANNELS 3 Zrotation Yrotation Xrotation
JOINT Head
{
OFFSET 0.97641 14.94369 -2.0383199999999997
CHANNELS 3 Zrotation Yrotation Xrotation
End Site
{
OFFSET 0.39465 15.14403 -0.94869
}
}
}
}
JOINT LeftShoulder
{
OFFSET 0.0 0.0 0.0
CHANNELS 3 Zrotation Yrotation Xrotation
JOINT LeftArm
{
OFFSET 29.61972 7.1458200000000005 -6.13611
CHANNELS 3 Zrotation Yrotation Xrotation
JOINT LeftForeArm
{
OFFSET 46.377900000000004 -0.0 -0.0
CHANNELS 3 Zrotation Yrotation Xrotation
JOINT LeftHand
{
OFFSET 33.76242 -0.0 -0.0
CHANNELS 3 Zrotation Yrotation Xrotation
JOINT LeftFingerBase
{
OFFSET 0.0 0.0 0.0
CHANNELS 3 Zrotation Yrotation Xrotation
JOINT LeftHandIndex1
{
OFFSET 4.76253 -0.0 0.0
CHANNELS 3 Zrotation Yrotation Xrotation
End Site
{
OFFSET 3.83967 -0.0 0.0
}
}
}
JOINT LThumb
{
OFFSET 0.0 0.0 0.0
CHANNELS 3 Zrotation Yrotation Xrotation
End Site
{
OFFSET 3.8983499999999998 -0.0 3.8983499999999998
}
}
}
}
}
}
JOINT RightShoulder
{
OFFSET 0.0 0.0 0.0
CHANNELS 3 Zrotation Yrotation Xrotation
JOINT RightArm
{
OFFSET -27.66726 9.565650000000002 -3.99042
CHANNELS 3 Zrotation Yrotation Xrotation
JOINT RightForeArm
{
OFFSET -47.665169999999996 -0.0 0.0
CHANNELS 3 Zrotation Yrotation Xrotation
JOINT RightHand
{
OFFSET -33.852959999999996 -0.0 -0.0
CHANNELS 3 Zrotation Yrotation Xrotation
JOINT RightFingerBase
{
OFFSET 0.0 0.0 0.0
CHANNELS 3 Zrotation Yrotation Xrotation
JOINT RightHandIndex1
{
OFFSET -6.72588 -0.0 0.0
CHANNELS 3 Zrotation Yrotation Xrotation
End Site
{
OFFSET -5.42259 -0.0 0.0
}
}
}
JOINT RThumb
{
OFFSET 0.0 0.0 0.0
CHANNELS 3 Zrotation Yrotation Xrotation
End Site
{
OFFSET -5.50539 -0.0 5.50539
}
}
}
}
}
}
}
}
}
}
JOINT R_Scapula
{
OFFSET -6.095381 17.31781 8.671352
CHANNELS 3 Xrotation Yrotation Zrotation
JOINT R_Shoulder
{
OFFSET -1.11513 -31.803375 27.376656
CHANNELS 3 Xrotation Yrotation Zrotation
JOINT R_Front_UpperLeg
{
OFFSET -4.05782 -32.021416 -8.177231
CHANNELS 3 Xrotation Yrotation Zrotation
JOINT R_Front_LowerLeg
{
OFFSET 1.553888 -30.822193 25.215584
CHANNELS 3 Xrotation Yrotation Zrotation
JOINT R_Front_Ankle
{
OFFSET 1.188602 -27.449919 13.561226
CHANNELS 3 Xrotation Yrotation Zrotation
JOINT R_Front_Hoof
{
OFFSET 4e-06 -9.177123 4.105614
CHANNELS 3 Xrotation Yrotation Zrotation
End Site
{
OFFSET -3e-06 -4e-06 -10.053635
}
}
}
}
}
}
}
JOINT L_Scapula
{
OFFSET 7.373911 17.328003 7.590313
CHANNELS 3 Xrotation Yrotation Zrotation
JOINT L_Shoulder
{
OFFSET 4.706675 -39.12355 14.468903
CHANNELS 3 Xrotation Yrotation Zrotation
JOINT L_Front_UpperLeg
{
OFFSET -0.569906 -18.276909 -27.826672
CHANNELS 3 Xrotation Yrotation Zrotation
JOINT L_Front_LowerLeg
{
OFFSET -0.478388 -36.4701 -16.060204
CHANNELS 3 Xrotation Yrotation Zrotation
JOINT L_Front_Ankle
{
OFFSET -0.280628 -23.263634 -19.938202
CHANNELS 3 Xrotation Yrotation Zrotation
JOINT L_Front_Hoof
{
OFFSET 0.004587 -9.384029 -3.607539
CHANNELS 3 Xrotation Yrotation Zrotation
End Site
{
OFFSET 0.011364 -7.125093 7.092755
}
}
}
}
}
}
}
}
}
}
JOINT L_Hip
{
OFFSET 14.989113 -6.453613 -12.736771
CHANNELS 3 Xrotation Yrotation Zrotation
JOINT L_Back_UpperLeg
{
OFFSET 0.039682 -35.143867 -4.992908
CHANNELS 3 Xrotation Yrotation Zrotation
JOINT L_Back_LowerLeg
{
OFFSET -0.453015 -19.382568 -40.51619
CHANNELS 3 Xrotation Yrotation Zrotation
JOINT L_Back_Ankle
{
OFFSET 5.507794 -34.576538 9.141853
CHANNELS 3 Xrotation Yrotation Zrotation
JOINT L_Back_Hoof
{
OFFSET 0.484327 -7.440332 -8.983963
CHANNELS 3 Xrotation Yrotation Zrotation
End Site
{
OFFSET 2.391207 -11.236143 -2.082306
}
}
}
}
}
}
JOINT R_Hip
{
OFFSET -14.784759 -6.453499 -12.973389
CHANNELS 3 Xrotation Yrotation Zrotation
JOINT R_Back_UpperLeg
{
OFFSET 0.117544 -32.269318 -14.788715
CHANNELS 3 Xrotation Yrotation Zrotation
JOINT R_Back_LowerLeg
{
OFFSET 0.443617 -26.906349 -35.962433
CHANNELS 3 Xrotation Yrotation Zrotation
JOINT R_Back_Ankle
{
OFFSET 0.017659 -33.290115 -14.185234
CHANNELS 3 Xrotation Yrotation Zrotation
JOINT R_Back_Hoof
{
OFFSET -0.346885 -9.917637 -6.150139
CHANNELS 3 Xrotation Yrotation Zrotation
End Site
{
OFFSET 2.106386 8.907843 -7.246902
}
}
}
}
}
}
JOINT Tail_01
{
OFFSET 0.180665 11.804451 -22.730854
CHANNELS 3 Xrotation Yrotation Zrotation
JOINT Tail_02
{
OFFSET 2.602429 -15.155418 -15.859962
CHANNELS 3 Xrotation Yrotation Zrotation
JOINT Tail_03
{
OFFSET 0.893097 -20.299004 -11.505386
CHANNELS 3 Xrotation Yrotation Zrotation
JOINT Tail_04
{
OFFSET -0.929188 -21.081474 -9.701576
CHANNELS 3 Xrotation Yrotation Zrotation
JOINT Tail_05
{
OFFSET -3.146472 -19.293648 -12.8013
CHANNELS 3 Xrotation Yrotation Zrotation
End Site
{
OFFSET 2.170052 12.616272 -19.54837
}
}
}
}
}
}
}
}
MOTION
Frames: 4
Frame Time: 0.0083333
0.000000 0.000000 0.000000 0.000004 0.000000 -0.000000 -8.793426 -4.307190 -1.929380 4.620666 4.424446 1.557468 6.329018 -1.352994 0.505998 2.383197 -4.631798 -0.308397 -5.245571 5.779467 -0.620901 4.291000 2.731200 20.559900 2.324300 4.651100 3.275000 -1.150100 2.119700 -7.765400 -8.336000 -2.536200 -22.011500 5.727200 -1.530700 -3.124900 2.991700 -0.439200 2.553000 -0.000000 0.000000 0.000000 -78.472400 25.229500 3.798700 40.385500 -48.296600 -18.726500 -0.000000 0.000000 -17.395500 19.701700 11.768300 4.177100 -7.125000 0.000000 -0.000000 -6.738800 42.359800 0.441200 -0.000000 0.000000 0.000000 79.484900 35.230300 48.678400 -105.755300 59.041000 -73.600500 0.000000 -0.000000 -19.468300 -18.129300 23.242000 -7.362000 7.125000 -0.000000 -0.000000 6.813400 -5.806300 6.133700 39.389790 -4.738829 -0.951037 -28.628572 2.322760 2.988282 50.013042 13.414857 -10.040184 7.654475 0.236472 -0.184094 17.783300 -5.660273 7.640673 -0.000026 -0.000139 0.000098 -5.316230 -0.387687 0.210891 -5.619063 -0.531039 0.424274 -67.870361 15.086892 10.578969 78.702095 -0.682952 0.797741 54.714848 -3.943673 5.570141 -0.000008 0.000124 0.000056 -42.025166 0.117097 -0.304865 -26.843460 -6.089269 -5.341462 54.624107 4.587964 -6.930947 -66.547447 -14.896520 4.465584 -27.481812 -7.297203 2.283455 -45.114250 0.134015 -0.322654 53.863159 6.401907 -0.766735 -65.772972 0.954640 -0.681393 42.833881 1.825486 -2.772313 23.986860 -2.142607 3.864848 27.399767 16.449240 -8.411932 -15.714986 -5.985563 4.078836 -15.804204 -4.636948 6.635615 -17.086529 -4.562767 8.399837 0.000053 0.000078 0.000052
0.000000 0.000000 0.000000 0.000004 0.000000 -0.000000 -8.638964 -3.196654 -3.750495 2.557748 3.477163 2.418330 6.040923 -1.441691 1.558378 3.575909 -4.395646 -0.279819 -4.097389 5.601602 -0.719276 4.622100 2.952800 19.854500 1.961400 4.965900 2.861400 -1.778700 2.256800 -7.762100 -8.267300 -2.902700 -21.701300 5.985200 -2.058800 -3.431500 3.018500 -0.692400 2.456600 -0.000000 0.000000 0.000000 -76.836900 28.605000 6.480700 44.039400 -50.289100 -21.497200 -0.000000 0.000000 -20.132900 19.539700 11.321900 3.985600 -7.125000 0.000000 -0.000000 -6.803200 41.876300 0.527000 -0.000000 0.000000 0.000000 79.051700 36.262500 48.056600 -112.860900 57.930100 -79.660500 0.000000 -0.000000 -20.631800 -18.061300 23.803200 -7.497800 7.125000 -0.000000 -0.000000 6.898200 -5.242200 6.285800 28.843571 -3.467275 -0.975905 -6.072069 0.614244 0.531454 13.309097 18.859051 -1.563771 54.342613 0.986073 -1.796893 19.355919 0.046514 10.130096 -0.000026 -0.000085 0.000097 -12.591415 -0.989082 0.548408 -5.242955 -0.494208 0.397511 -74.433441 12.460980 15.336824 72.760857 -0.676683 0.712148 36.252773 -7.685666 2.865994 0.000001 0.000076 0.000026 -42.367176 0.118923 -0.306878 -21.510807 -8.320318 -4.030978 48.775261 4.442801 -6.021550 -44.865700 -5.928216 3.587667 -29.096588 -7.749287 2.305828 -51.763973 0.173541 -0.357699 50.184444 6.624590 5.375813 -64.141441 0.923942 -0.679542 23.076927 7.211835 -6.729736 18.128321 -1.773105 2.845359 34.975819 17.157736 -9.838058 -15.396039 -6.094749 4.247266 -19.247488 -5.355708 7.196146 -18.605539 -5.130015 9.133472 0.000053 0.000078 0.000052
0.000000 0.000000 0.000000 0.000004 0.000000 -0.000000 -8.638964 -3.196654 -3.750495 2.557748 3.477163 2.418330 6.040923 -1.441691 1.558378 3.575909 -4.395646 -0.279819 -4.097389 5.601602 -0.719276 4.894300 3.193700 19.293800 1.632500 5.306600 2.400000 -2.348900 2.401900 -7.886000 -8.297600 -3.465800 -21.362300 6.125200 -2.828700 -3.404900 3.002600 -1.074600 2.474100 0.000000 0.000000 0.000000 -75.093800 31.699700 9.421000 47.564700 -51.964800 -24.242400 -0.000000 0.000000 -22.331100 19.576300 10.218500 3.609900 -7.125000 0.000000 -0.000000 -6.585500 40.723700 0.697900 0.000000 0.000000 0.000000 77.954800 36.732100 47.054800 -119.209000 56.517100 -85.000000 0.000000 -0.000000 -22.384900 -18.625200 24.795500 -8.045000 7.125000 -0.000000 -0.000000 6.632600 -4.139700 6.178800 28.843571 -3.467275 -0.975905 -6.072069 0.614244 0.531454 13.309097 18.859051 -1.563771 54.342613 0.986073 -1.796893 19.355919 0.046514 10.130096 -0.000026 -0.000085 0.000097 -12.591415 -0.989082 0.548408 -5.242955 -0.494208 0.397511 -74.433441 12.460980 15.336824 72.760857 -0.676683 0.712148 36.252773 -7.685666 2.865994 0.000001 0.000076 0.000026 -42.367176 0.118923 -0.306878 -21.510807 -8.320318 -4.030978 48.775261 4.442801 -6.021550 -44.865700 -5.928216 3.587667 -29.096588 -7.749287 2.305828 -51.763973 0.173541 -0.357699 50.184444 6.624590 5.375813 -64.141441 0.923942 -0.679542 23.076927 7.211835 -6.729736 18.128321 -1.773105 2.845359 34.975819 17.157736 -9.838058 -15.396039 -6.094749 4.247266 -19.247488 -5.355708 7.196146 -18.605539 -5.130015 9.133472 0.000053 0.000078 0.000052
0.000000 0.000000 0.000000 0.000004 0.000000 -0.000000 -8.638964 -3.196654 -3.750495 2.557748 3.477163 2.418330 6.040923 -1.441691 1.558378 3.575909 -4.395646 -0.279819 -4.097389 5.601602 -0.719276 5.327100 3.372600 18.648100 1.285700 5.565500 2.321600 -2.978700 2.524500 -7.524400 -8.356500 -4.107900 -21.271400 6.288300 -3.673400 -3.499800 2.990900 -1.488200 2.495500 0.000000 -0.000000 0.000000 -73.516700 33.873600 11.958700 50.633600 -53.247900 -26.681000 -0.000000 0.000000 -23.731500 19.178200 9.057000 3.133900 -7.125000 0.000000 -0.000000 -6.750800 39.473200 0.924400 0.000000 -0.000000 0.000000 76.243200 37.998300 45.945200 -124.567100 54.964700 -89.429900 0.000000 -0.000000 -24.512600 -19.916800 25.377200 -8.826600 7.125000 -0.000000 -0.000000 5.898200 -3.330300 5.575700 28.843571 -3.467275 -0.975905 -6.072069 0.614244 0.531454 13.309097 18.859051 -1.563771 54.342613 0.986073 -1.796893 19.355919 0.046514 10.130096 -0.000026 -0.000085 0.000097 -12.591415 -0.989082 0.548408 -5.242955 -0.494208 0.397511 -74.433441 12.460980 15.336824 72.760857 -0.676683 0.712148 36.252773 -7.685666 2.865994 0.000001 0.000076 0.000026 -42.367176 0.118923 -0.306878 -21.510807 -8.320318 -4.030978 48.775261 4.442801 -6.021550 -44.865700 -5.928216 3.587667 -29.096588 -7.749287 2.305828 -51.763973 0.173541 -0.357699 50.184444 6.624590 5.375813 -64.141441 0.923942 -0.679542 23.076927 7.211835 -6.729736 18.128321 -1.773105 2.845359 34.975819 17.157736 -9.838058 -15.396039 -6.094749 4.247266 -19.247488 -5.355708 7.196146 -18.605539 -5.130015 9.133472 0.000053 0.000078 0.000052
